# xmcd
#
# Track frame offsets: 
#        150
#        16030
#        30863
#        31163
#        48749
#        67537
#        88714
#        110924
#        126249
#        139032
#        156669
#        176697
#        189047
#        202299
#        217562
#        240222
#        251099
#        262852
#        277499
#        294954
#
# Disc length: 4145 seconds
#
# Revision: 0
# Processed by: cddbd v1.5.2PL0 Copyright (c) Steve Scherf et al.
# Submitted via: ExactAudioCopy v1.3
#
DISCID=15102f14
DTITLE=The Nighthawks - Jacks and Kings Volume I and II
DYEAR=1982
DGENRE=Blues Rock
TTITLE0=For You My Love
TTITLE1=Come Baby
TTITLE2=Love Me or Leave Me
TTITLE3=Dust My Broom
TTITLE4=Sugar Mama
TTITLE5=The Sky Is Cryin'
TTITLE6=Pinetop's Boogie Woogie
TTITLE7=Floyd's Guitar Blues
TTITLE8=Walkin' By Myself
TTITLE9=Little Queenie
TTITLE10=Born In Chicago
TTITLE11=Anna Lee
TTITLE12=Two Bugs and A Roach
TTITLE13=Lickin' Gravy
TTITLE14=Sea Cruise
TTITLE15=Nervous Breakdown
TTITLE16=Rockin' the Boogie
TTITLE17=After Hours
TTITLE18=Mother-In-Law (Blues)
TTITLE19=Gotta Get My Baby Back
EXTD=
EXTT0=
EXTT1=
EXTT2=
EXTT3=
EXTT4=
EXTT5=
EXTT6=
EXTT7=
EXTT8=
EXTT9=
EXTT10=
EXTT11=
EXTT12=
EXTT13=
EXTT14=
EXTT15=
EXTT16=
EXTT17=
EXTT18=
EXTT19=
PLAYORDER=
